#define message_width 280
#define message_height 12
static unsigned char message_bits[] = {
   0x00, 0x00, 0x00, 0x00, 0x00, 0x00, 0x00, 0x00, 0x00, 0x00, 0x00, 0x00,
   0x00, 0x00, 0x00, 0x00, 0x00, 0x00, 0x00, 0x00, 0x00, 0x00, 0x00, 0x00,
   0x00, 0x00, 0x00, 0x10, 0x00, 0x00, 0x00, 0x00, 0x00, 0x00, 0x00, 0x7f,
   0x00, 0x00, 0x00, 0x00, 0x00, 0x00, 0x00, 0x00, 0x20, 0x30, 0x00, 0x00,
   0x00, 0x00, 0x00, 0x00, 0x00, 0x00, 0x80, 0x01, 0x00, 0x0c, 0x00, 0x00,
   0x00, 0x00, 0x34, 0x00, 0x00, 0x00, 0x00, 0x00, 0x00, 0x00, 0x66, 0x00,
   0x00, 0x00, 0x00, 0x00, 0x00, 0x00, 0x00, 0x20, 0x20, 0x00, 0x00, 0x00,
   0x00, 0x00, 0x00, 0x00, 0x00, 0x00, 0x01, 0x00, 0x00, 0x00, 0x00, 0x00,
   0x00, 0x10, 0x00, 0x00, 0x00, 0x00, 0x00, 0x00, 0x00, 0xc4, 0xec, 0x78,
   0xf8, 0xf0, 0x00, 0xf0, 0xf8, 0x01, 0xf0, 0xe3, 0xc3, 0x03, 0x80, 0xc7,
   0x8e, 0x07, 0x0f, 0x1f, 0x00, 0x1f, 0x1f, 0x0e, 0x76, 0x7c, 0x00, 0x77,
   0x30, 0x78, 0x78, 0xf0, 0xf1, 0x00, 0x00, 0x00, 0x44, 0x5c, 0xcc, 0xc8,
   0xd8, 0x00, 0x98, 0x31, 0x01, 0x60, 0x60, 0x62, 0x06, 0xc0, 0x86, 0xcb,
   0x8c, 0x8d, 0x09, 0x00, 0x13, 0x19, 0x0a, 0x2e, 0x26, 0x00, 0xce, 0x10,
   0xcc, 0xc8, 0x98, 0x98, 0x01, 0x00, 0x00, 0x7c, 0x08, 0x94, 0x18, 0x18,
   0x00, 0x18, 0x13, 0x01, 0x60, 0x60, 0xa4, 0x04, 0x20, 0x0c, 0xc1, 0x98,
   0x81, 0x03, 0x00, 0x13, 0x10, 0x08, 0x04, 0x0e, 0x00, 0x84, 0x30, 0x94,
   0xd1, 0x30, 0x28, 0x03, 0x00, 0x00, 0x06, 0x08, 0xee, 0xf4, 0xe8, 0x01,
   0x08, 0x12, 0x01, 0x20, 0x20, 0x72, 0x07, 0x20, 0x80, 0x40, 0x90, 0x1e,
   0x1d, 0x00, 0x11, 0x1f, 0x0c, 0x04, 0x74, 0x00, 0x84, 0x10, 0xee, 0xd8,
   0xe8, 0xdd, 0x02, 0x00, 0x00, 0x04, 0x08, 0x0c, 0x8c, 0x89, 0x01, 0x18,
   0x13, 0x01, 0x60, 0x22, 0x62, 0x00, 0x60, 0x84, 0xc0, 0x98, 0x98, 0x11,
   0x00, 0x31, 0x31, 0x08, 0x04, 0x46, 0x00, 0xc4, 0x30, 0x0c, 0x88, 0x08,
   0x19, 0x00, 0x00, 0x00, 0x1f, 0x7e, 0xfc, 0xfd, 0xf8, 0x00, 0xf0, 0xb9,
   0x03, 0xc0, 0x73, 0xe7, 0x0f, 0xc0, 0xc7, 0x87, 0x8f, 0x8f, 0x1f, 0x80,
   0x3b, 0x3f, 0x7f, 0x3f, 0x7e, 0x00, 0x7e, 0xfc, 0xf8, 0xfd, 0xf9, 0xf1,
   0x63, 0xc0, 0xc0, 0x04, 0x20, 0x00, 0x00, 0x00, 0x00, 0x00, 0x00, 0x02,
   0x80, 0x00, 0x04, 0x00, 0x80, 0x80, 0x04, 0x00, 0x00, 0x00, 0x00, 0x20,
   0x10, 0x08, 0x08, 0x00, 0x00, 0x04, 0x80, 0x20, 0x10, 0x00, 0x40, 0x40,
   0x00, 0x00, 0x00, 0x00, 0x00, 0x00, 0x00, 0x00, 0x00, 0x00, 0x00, 0x00,
   0x00, 0x00, 0x00, 0x00, 0x00, 0x00, 0x00, 0x00, 0x00, 0x00, 0x00, 0x00,
   0x00, 0x00, 0x00, 0x00, 0x04, 0x00, 0x00, 0x00, 0x00, 0x00, 0x00, 0x00,
   0x00, 0x00, 0x00, 0x00, 0x00, 0x00, 0x00, 0x00, 0x00, 0x00, 0x00, 0x00,
   0x00, 0x00, 0x00, 0x00, 0x00, 0x00, 0x00, 0x00, 0x00, 0x00, 0x00, 0x00,
   0x00, 0x00, 0x00, 0x1f, 0x00, 0x00, 0x00, 0x00, 0x00, 0x00, 0x00, 0x00 };
